<svg id="svg" version="1.1" width="400" height="400" viewBox="0 0 400 400" xmlns="http://www.w3.org/2000/svg" xmlns:xlink="http://www.w3.org/1999/xlink" ><g id="svgg"><path id="path0" d="M191.406 34.427 C 186.273 34.704,172.675 36.179,172.362 36.492 C 172.308 36.547,174.377 49.936,176.961 66.245 C 179.545 82.554,182.314 100.091,183.115 105.215 L 184.570 114.532 186.523 114.320 C 191.913 113.734,201.109 113.174,201.688 113.396 C 202.298 113.630,202.344 117.489,202.344 168.425 C 202.344 201.724,202.484 223.058,202.703 222.832 C 202.953 222.573,272.906 54.065,274.874 48.980 C 274.972 48.727,272.883 47.728,269.845 46.577 C 244.628 37.018,218.460 32.965,191.406 34.427 " stroke="none" fill="#94c363" fill-rule="evenodd"></path><path id="path1" d="M325.781 133.363 C 323.192 135.287,232.324 201.345,207.252 219.530 C 204.473 221.545,202.367 223.250,202.571 223.318 C 202.776 223.386,227.283 219.585,257.031 214.872 C 286.780 210.158,311.177 206.359,311.247 206.429 C 311.594 206.776,312.477 216.312,312.488 219.824 L 312.500 223.828 336.389 223.828 L 360.277 223.828 360.015 217.420 C 358.794 187.639,349.135 158.384,332.671 134.605 C 329.683 130.289,329.872 130.323,325.781 133.363 " stroke="none" fill="#fbc434" fill-rule="evenodd"></path><path id="path2" d="M75.903 229.395 C 76.614 245.670,80.700 262.456,87.412 276.677 C 89.100 280.253,89.724 281.231,90.203 281.050 C 91.844 280.430,200.661 224.845,201.158 224.372 C 201.647 223.907,192.585 223.828,138.695 223.828 L 75.660 223.828 75.903 229.395 " stroke="none" fill="#e45c84" fill-rule="evenodd"></path><path id="path3" d="M59.603 138.772 C 50.863 154.490,46.760 164.038,42.750 177.994 C 38.924 191.313,36.333 208.535,36.329 220.670 L 36.328 223.957 65.918 223.697 C 82.192 223.555,119.409 223.438,148.622 223.438 C 200.772 223.438,201.722 223.424,200.966 222.697 C 200.542 222.290,176.729 207.585,148.047 190.020 C 119.365 172.455,88.174 153.346,78.733 147.555 C 69.292 141.765,61.381 136.959,61.155 136.876 C 60.928 136.792,60.230 137.646,59.603 138.772 M256.180 215.179 C 205.188 223.313,201.838 223.899,203.262 224.446 C 203.614 224.581,203.788 224.876,203.648 225.101 C 203.498 225.344,203.583 225.395,203.857 225.226 C 204.112 225.068,206.644 225.905,209.484 227.085 C 259.069 247.680,303.604 266.016,304.040 266.016 C 304.346 266.016,304.692 265.708,304.809 265.332 C 304.926 264.956,305.745 262.640,306.629 260.185 C 311.175 247.565,313.372 233.013,312.528 221.115 C 311.606 208.124,311.367 206.635,310.203 206.683 C 309.640 206.706,285.330 210.530,256.180 215.179 " stroke="none" fill="#52524a" fill-rule="evenodd"></path><path id="path4" d="M192.969 113.691 C 191.143 113.864,187.745 114.191,185.418 114.418 C 171.774 115.747,153.375 122.916,139.941 132.138 C 136.490 134.507,136.337 133.539,141.223 140.249 C 143.485 143.356,146.033 146.865,146.884 148.047 C 148.802 150.709,149.736 151.995,157.990 163.350 C 170.372 180.384,175.583 187.556,176.953 189.446 C 177.705 190.484,180.023 193.679,182.103 196.545 C 184.184 199.412,189.318 206.493,193.513 212.280 C 197.708 218.068,201.412 222.955,201.743 223.140 C 202.286 223.444,202.337 217.965,202.247 168.477 L 202.148 113.477 199.219 113.426 C 197.607 113.398,194.795 113.517,192.969 113.691 " stroke="none" fill="#949393" fill-rule="evenodd"></path><path id="path5" d="M201.666 224.154 C 201.188 224.450,155.496 287.126,155.486 287.500 C 155.461 288.470,167.166 294.925,173.438 297.399 C 182.911 301.136,201.383 304.293,202.141 302.305 C 202.627 301.031,202.158 223.850,201.666 224.154 " stroke="none" fill="#4cacd4" fill-rule="evenodd"></path><path id="path6" d="M202.170 294.511 C 202.011 333.386,201.999 365.384,202.143 365.616 C 202.600 366.356,216.640 365.377,225.000 364.021 C 245.563 360.688,264.752 352.952,282.978 340.648 C 286.007 338.603,286.040 338.425,283.909 335.583 C 283.008 334.381,281.470 332.302,280.491 330.962 C 279.512 329.622,277.906 327.424,276.922 326.079 C 275.939 324.734,271.388 318.447,266.809 312.109 C 262.230 305.771,257.806 299.663,256.976 298.535 C 256.147 297.407,254.801 295.562,253.985 294.434 C 253.169 293.306,251.526 291.064,250.335 289.453 C 248.024 286.327,240.702 276.232,239.038 273.878 C 237.542 271.761,229.869 261.163,227.407 257.813 C 220.303 248.145,218.363 245.483,210.397 234.473 C 206.162 228.618,202.643 223.828,202.577 223.828 C 202.512 223.828,202.329 255.635,202.170 294.511 " stroke="none" fill="#6c6c6c" fill-rule="evenodd"></path><path id="path7" d="M312.208 216.992 C 312.212 217.852,312.292 218.157,312.386 217.671 C 312.479 217.185,312.476 216.482,312.378 216.109 C 312.280 215.735,312.204 216.133,312.208 216.992 M107.941 223.730 C 125.521 223.787,154.174 223.787,171.613 223.730 C 189.052 223.674,174.668 223.628,139.648 223.628 C 104.629 223.628,90.361 223.674,107.941 223.730 " stroke="none" fill="#79745a" fill-rule="evenodd"></path></g></svg>